<?xml version="1.0" standalone="no"?>
<!DOCTYPE svg PUBLIC "-//W3C//DTD SVG 20010904//EN"
 "http://www.w3.org/TR/2001/REC-SVG-20010904/DTD/svg10.dtd">
<svg version="1.0" xmlns="http://www.w3.org/2000/svg"
 width="276.000000pt" height="276.000000pt" viewBox="0 0 276.000000 276.000000"
 preserveAspectRatio="xMidYMid meet">
<metadata>
Created by potrace 1.14, written by Peter Selinger 2001-2017
</metadata>
<g transform="translate(0.000000,276.000000) scale(0.100000,-0.100000)"
fill="#000000" stroke="none">
<path d="M306 1780 l2 -981 397 -396 397 -396 671 1 c370 0 678 1 685 1 9 1
12 88 12 401 l0 400 -680 0 -680 0 0 975 0 975 -402 0 -403 0 1 -980z"/>
<path d="M1680 2152 c-6 -2 -10 -139 -10 -382 l0 -379 238 -3 c130 -2 310 -2
400 0 l162 2 0 383 0 382 -390 0 c-215 0 -395 -1 -400 -3z"/>
</g>
</svg>
